<svg xmlns="http://www.w3.org/2000/svg" viewBox="0 0 800 600" width="800" height="600">
  <!-- Fundo com gradiente suave -->
  <defs>
    <linearGradient id="bg-gradient" x1="0%" y1="0%" x2="100%" y2="100%">
      <stop offset="0%" stop-color="#f5f5f5" />
      <stop offset="100%" stop-color="#e0e0e0" />
    </linearGradient>
  </defs>
  <rect width="800" height="600" fill="url(#bg-gradient)" rx="20" ry="20" />
  
  <!-- Veterinária com cachorro -->
  <g transform="translate(400, 300) scale(1.2)">
    <!-- Veterinária -->
    <g transform="translate(-100, 0)">
      <!-- Corpo -->
      <rect x="-40" y="-120" width="80" height="180" rx="20" fill="#4D8B48" />
      
      <!-- Cabeça -->
      <circle cx="0" cy="-150" r="40" fill="#f5d7b5" />
      
      <!-- Cabelo -->
      <path d="M -30 -170 C -40 -190 -20 -200 0 -190 C 20 -200 40 -190 30 -170 C 40 -160 30 -140 0 -130 C -30 -140 -40 -160 -30 -170 Z" fill="#6b4226" />
      
      <!-- Rosto -->
      <circle cx="-15" cy="-150" r="5" fill="#333" />
      <circle cx="15" cy="-150" r="5" fill="#333" />
      <path d="M -10 -130 C 0 -125 10 -130 0 -120" stroke="#333" stroke-width="2" fill="none" />
      
      <!-- Jaleco -->
      <rect x="-50" y="-120" width="100" height="50" rx="10" fill="white" />
      <rect x="-30" y="-120" width="60" height="120" fill="white" />
      
      <!-- Braços -->
      <rect x="-80" y="-100" width="40" height="20" rx="10" fill="#f5d7b5" />
      <rect x="40" y="-100" width="40" height="20" rx="10" fill="#f5d7b5" />
      
      <!-- Mãos -->
      <circle cx="-80" cy="-90" r="10" fill="#f5d7b5" />
      <circle cx="80" cy="-90" r="10" fill="#f5d7b5" />
      
      <!-- Estetoscópio -->
      <path d="M -20 -90 C -40 -80 -60 -70 -70 -80" stroke="#333" stroke-width="3" fill="none" />
      <circle cx="-70" cy="-80" r="8" fill="#4D8B48" />
    </g>
    
    <!-- Cachorro -->
    <g transform="translate(80, 20)">
      <!-- Corpo -->
      <ellipse cx="0" cy="0" rx="80" ry="60" fill="#d4a76a" />
      
      <!-- Cabeça -->
      <circle cx="-70" cy="-30" r="50" fill="#d4a76a" />
      
      <!-- Orelhas -->
      <ellipse cx="-100" cy="-60" rx="20" ry="30" fill="#c49659" />
      <ellipse cx="-40" cy="-60" rx="20" ry="30" fill="#c49659" />
      
      <!-- Olhos -->
      <circle cx="-85" cy="-30" r="6" fill="#333" />
      <circle cx="-55" cy="-30" r="6" fill="#333" />
      
      <!-- Focinho -->
      <ellipse cx="-70" cy="-10" rx="20" ry="15" fill="#c49659" />
      <ellipse cx="-70" cy="-5" rx="10" ry="8" fill="#333" />
      
      <!-- Patas -->
      <ellipse cx="-40" cy="50" rx="15" ry="10" fill="#c49659" />
      <ellipse cx="40" cy="50" rx="15" ry="10" fill="#c49659" />
      
      <!-- Rabo -->
      <path d="M 80 -20 C 120 -40 130 0 110 20" stroke="#d4a76a" stroke-width="20" stroke-linecap="round" fill="none" />
    </g>
    
    <!-- Mesa de exame -->
    <rect x="-200" y="60" width="400" height="20" fill="#8BC486" rx="5" ry="5" />
    <rect x="-180" y="80" width="20" height="60" fill="#4D8B48" />
    <rect x="160" y="80" width="20" height="60" fill="#4D8B48" />
  </g>
  
  <!-- Elementos decorativos -->
  <g opacity="0.1">
    <circle cx="100" cy="100" r="50" fill="#4D8B48" />
    <circle cx="700" cy="500" r="70" fill="#4D8B48" />
    <circle cx="200" cy="500" r="40" fill="#8BC486" />
    <circle cx="600" cy="150" r="60" fill="#8BC486" />
  </g>
</svg>